  0
SECTION
  2
HEADER
  9
$ACADVER
  1
AC1024
  9
$ACADMAINTVER
 70
     0
  9
$DWGCODEPAGE
  3
ANSI_1252
  9
$LASTSAVEDBY
  1

  9
$INSBASE
 10
0.0
 20
0.0
 30
0.0
  9
$EXTMIN
 10
0.0
 20
0.0
 30
0.0
  9
$EXTMAX
 10
0.0
 20
0.0
 30
0.0
  9
$LIMMIN
 10
0.0
 20
0.0
  9
$LIMMAX
 10
12.0
 20
9.0
  9
$ORTHOMODE
 70
     0
  9
$REGENMODE
 70
     1
  9
$FILLMODE
 70
     1
  9
$QTEXTMODE
 70
     0
  9
$MIRRTEXT
 70
     0
  9
$LTSCALE
 40
1.0
  9
$ATTMODE
 70
     1
  9
$TEXTSIZE
 40
0.2
  9
$TRACEWID
 40
0.05
  9
$TEXTSTYLE
  7
STANDARD
  9
$CLAYER
  8
0
  9
$CELTYPE
  6
BYLAYER
  9
$CECOLOR
 62
   256
  9
$CELTSCALE
 40
1.0
  9
$DISPSILH
 70
     0
  9
$DIMSCALE
 40
1.0
  9
$DIMASZ
 40
0.18
  9
$DIMEXO
 40
0.0625
  9
$DIMDLI
 40
0.38
  9
$DIMRND
 40
0.0
  9
$DIMDLE
 40
0.0
  9
$DIMEXE
 40
0.18
  9
$DIMTP
 40
0.0
  9
$DIMTM
 40
0.0
  9
$DIMTXT
 40
0.18
  9
$DIMCEN
 40
0.09
  9
$DIMTSZ
 40
0.0
  9
$DIMTOL
 70
     0
  9
$DIMLIM
 70
     0
  9
$DIMTIH
 70
     1
  9
$DIMTOH
 70
     1
  9
$DIMSE1
 70
     0
  9
$DIMSE2
 70
     0
  9
$DIMTAD
 70
     0
  9
$DIMZIN
 70
     0
  9
$DIMBLK
  1

  9
$DIMASO
 70
     1
  9
$DIMSHO
 70
     1
  9
$DIMPOST
  1

  9
$DIMAPOST
  1

  9
$DIMALT
 70
     0
  9
$DIMALTD
 70
     2
  9
$DIMALTF
 40
25.4
  9
$DIMLFAC
 40
1.0
  9
$DIMTOFL
 70
     0
  9
$DIMTVP
 40
0.0
  9
$DIMTIX
 70
     0
  9
$DIMSOXD
 70
     0
  9
$DIMSAH
 70
     0
  9
$DIMBLK1
  1

  9
$DIMBLK2
  1

  9
$DIMSTYLE
  2
STANDARD
  9
$DIMCLRD
 70
     0
  9
$DIMCLRE
 70
     0
  9
$DIMCLRT
 70
     0
  9
$DIMTFAC
 40
1.0
  9
$DIMGAP
 40
0.09
  9
$DIMJUST
 70
     0
  9
$DIMSD1
 70
     0
  9
$DIMSD2
 70
     0
  9
$DIMTOLJ
 70
     1
  9
$DIMTZIN
 70
     0
  9
$DIMALTZ
 70
     0
  9
$DIMALTTZ
 70
     0
  9
$DIMUPT
 70
     0
  9
$DIMDEC
 70
     4
  9
$DIMTDEC
 70
     4
  9
$DIMALTU
 70
     2
  9
$DIMALTTD
 70
     2
  9
$DIMTXSTY
  7
STANDARD
  9
$DIMAUNIT
 70
     0
  9
$DIMADEC
 70
     0
  9
$DIMALTRND
 40
0.0
  9
$DIMAZIN
 70
     0
  9
$DIMDSEP
 70
    46
  9
$DIMATFIT
 70
     0
  9
$DIMFRAC
 70
     0
  9
$DIMLDRBLK
  1

  9
$DIMLUNIT
 70
     2
  9
$DIMLWD
 70
    -2
  9
$DIMLWE
 70
    -2
  9
$DIMTMOVE
 70
     0
  9
$DIMFXL
 40
1.0
  9
$DIMFXLON
 70
     0
  9
$DIMJOGANG
 40
0.785398163397
  9
$DIMTFILL
 70
     0
  9
$DIMTFILLCLR
 70
     0
  9
$DIMARCSYM
 70
     0
  9
$DIMLTYPE
  6
BYLAYER
  9
$DIMLTEX1
  6

  9
$DIMLTEX2
  6

  9
$DIMTXTDIRECTION
 70
     0
  9
$LUNITS
 70
     2
  9
$LUPREC
 70
     4
  9
$SKETCHINC
 40
0.1
  9
$FILLETRAD
 40
0.0
  9
$AUNITS
 70
     0
  9
$AUPREC
 70
     0
  9
$MENU
  1
.
  9
$ELEVATION
 40
0.0
  9
$PELEVATION
 40
0.0
  9
$THICKNESS
 40
0.0
  9
$LIMCHECK
 70
     0
  9
$CHAMFERA
 40
0.0
  9
$CHAMFERB
 40
0.0
  9
$CHAMFERC
 40
0.0
  9
$CHAMFERD
 40
0.0
  9
$SKPOLY
 70
     0
  9
$TDCREATE
 40
2461224.479594907258
  9
$TDUCREATE
 40
2461224.021261574235
  9
$TDUPDATE
 40
2461224.479594907258
  9
$TDUUPDATE
 40
2461224.021261574235
  9
$TDINDWG
 40
0.0
  9
$TDUSRTIMER
 40
0.0
  9
$USRTIMER
 70
     1
  9
$ANGBASE
 50
0.0
  9
$ANGDIR
 70
     0
  9
$PDMODE
 70
     0
  9
$PDSIZE
 40
0.0
  9
$PLINEWID
 40
0.0
  9
$SPLFRAME
 70
     0
  9
$SPLINETYPE
 70
     6
  9
$SPLINESEGS
 70
     8
  9
$HANDSEED
  5
19
  9
$SURFTAB1
 70
     6
  9
$SURFTAB2
 70
     6
  9
$SURFTYPE
 70
     6
  9
$SURFU
 70
     6
  9
$SURFV
 70
     6
  9
$UCSBASE
  2

  9
$UCSNAME
  2

  9
$UCSORG
 10
0.0
 20
0.0
 30
0.0
  9
$UCSXDIR
 10
1.0
 20
0.0
 30
0.0
  9
$UCSYDIR
 10
0.0
 20
1.0
 30
0.0
  9
$UCSORTHOREF
  2

  9
$UCSORTHOVIEW
 70
     0
  9
$UCSORGTOP
 10
0.0
 20
0.0
 30
0.0
  9
$UCSORGBOTTOM
 10
0.0
 20
0.0
 30
0.0
  9
$UCSORGLEFT
 10
0.0
 20
0.0
 30
0.0
  9
$UCSORGRIGHT
 10
0.0
 20
0.0
 30
0.0
  9
$UCSORGFRONT
 10
0.0
 20
0.0
 30
0.0
  9
$UCSORGBACK
 10
0.0
 20
0.0
 30
0.0
  9
$PUCSBASE
  2

  9
$PUCSNAME
  2

  9
$PUCSORG
 10
0.0
 20
0.0
 30
0.0
  9
$PUCSXDIR
 10
1.0
 20
0.0
 30
0.0
  9
$PUCSYDIR
 10
0.0
 20
1.0
 30
0.0
  9
$PUCSORTHOREF
  2

  9
$PUCSORTHOVIEW
 70
     0
  9
$PUCSORGTOP
 10
0.0
 20
0.0
 30
0.0
  9
$PUCSORGBOTTOM
 10
0.0
 20
0.0
 30
0.0
  9
$PUCSORGLEFT
 10
0.0
 20
0.0
 30
0.0
  9
$PUCSORGRIGHT
 10
0.0
 20
0.0
 30
0.0
  9
$PUCSORGFRONT
 10
0.0
 20
0.0
 30
0.0
  9
$PUCSORGBACK
 10
0.0
 20
0.0
 30
0.0
  9
$USERI1
 70
     0
  9
$USERI2
 70
     0
  9
$USERI3
 70
     0
  9
$USERI4
 70
     0
  9
$USERI5
 70
     0
  9
$USERR1
 40
0.0
  9
$USERR2
 40
0.0
  9
$USERR3
 40
0.0
  9
$USERR4
 40
0.0
  9
$USERR5
 40
0.0
  9
$WORLDVIEW
 70
     1
  9
$SHADEDGE
 70
     3
  9
$SHADEDIF
 70
    70
  9
$TILEMODE
 70
     1
  9
$MAXACTVP
 70
    64
  9
$PINSBASE
 10
0.0
 20
0.0
 30
0.0
  9
$PLIMCHECK
 70
     0
  9
$PEXTMIN
 10
100000000000000000000.0
 20
100000000000000000000.0
 30
100000000000000000000.0
  9
$PEXTMAX
 10
-100000000000000000000.0
 20
-100000000000000000000.0
 30
-100000000000000000000.0
  9
$PLIMMIN
 10
0.0
 20
0.0
  9
$PLIMMAX
 10
12.0
 20
9.0
  9
$UNITMODE
 70
     0
  9
$VISRETAIN
 70
     1
  9
$PLINEGEN
 70
     0
  9
$PSLTSCALE
 70
     1
  9
$TREEDEPTH
 70
  3020
  9
$CMLSTYLE
  2
STANDARD
  9
$CMLJUST
 70
     0
  9
$CMLSCALE
 40
1.0
  9
$PROXYGRAPHICS
 70
     1
  9
$MEASUREMENT
 70
     0
  9
$CELWEIGHT
370
    -1
  9
$ENDCAPS
280
     0
  9
$JOINSTYLE
280
     0
  9
$LWDISPLAY
290
0
  9
$INSUNITS
 70
     0
  9
$HYPERLINKBASE
  1

  9
$STYLESHEET
  1

  9
$XEDIT
290
1
  9
$CEPSNTYPE
380
     0
  9
$PSTYLEMODE
290
1
  9
$FINGERPRINTGUID
  2
465af287-aada-455b-add5-afd650aaf0e5
  9
$VERSIONGUID
  2
aa3d27f1-0e48-47cc-b603-0ede5dd9871c
  9
$EXTNAMES
290
1
  9
$PSVPSCALE
 40
0.0
  9
$OLESTARTUP
290
0
  9
$SORTENTS
280
   127
  9
$INDEXCTL
280
     0
  9
$HIDETEXT
280
     0
  9
$XCLIPFRAME
280
     2
  9
$HALOGAP
280
     0
  9
$OBSCOLOR
 70
   257
  9
$OBSLTYPE
280
     0
  9
$INTERSECTIONDISPLAY
280
     0
  9
$INTERSECTIONCOLOR
 70
   257
  9
$DIMASSOC
280
     1
  9
$PROJECTNAME
  1

  9
$CAMERADISPLAY
290
0
  9
$LENSLENGTH
 40
50.0
  9
$CAMERAHEIGHT
 40
0.0
  9
$STEPSPERSEC
 40
2.0
  9
$STEPSIZE
 40
6.0
  9
$3DDWFPREC
 40
2.0
  9
$PSOLWIDTH
 40
0.25
  9
$PSOLHEIGHT
 40
4.0
  9
$LOFTANG1
 40
1.570796326795
  9
$LOFTANG2
 40
1.570796326795
  9
$LOFTMAG1
 40
0.0
  9
$LOFTMAG2
 40
0.0
  9
$LOFTPARAM
 70
     7
  9
$LOFTNORMALS
280
     1
  9
$LATITUDE
 40
37.795
  9
$LONGITUDE
 40
-122.394
  9
$NORTHDIRECTION
 40
0.0
  9
$TIMEZONE
 70
 -8000
  9
$LIGHTGLYPHDISPLAY
280
     1
  9
$TILEMODELIGHTSYNCH
280
     1
  9
$SOLIDHIST
280
     0
  9
$SHOWHIST
280
     1
  9
$DWFFRAME
280
     2
  9
$DGNFRAME
280
     0
  9
$REALWORLDSCALE
290
1
  9
$INTERFERECOLOR
 62
     1
  9
$CSHADOW
280
     0
  9
$SHADOWPLANELOCATION
 40
0.0
  0
ENDSEC
  0
SECTION
  2
TABLES
  0
TABLE
  2
APPID
100
AcDbSymbolTable
 70
     0
  0
APPID
  5
1
100
AcDbSymbolTableRecord
100
AcDbRegAppTableRecord
  2
ACAD
 70
     0
  0
APPID
  5
2
100
AcDbSymbolTableRecord
100
AcDbRegAppTableRecord
  2
ACADANNOTATIVE
 70
     0
  0
APPID
  5
4
100
AcDbSymbolTableRecord
100
AcDbRegAppTableRecord
  2
ACAD_MLEADERVER
 70
     0
  0
APPID
  5
3
100
AcDbSymbolTableRecord
100
AcDbRegAppTableRecord
  2
ACAD_NAV_VCDISPLAY
 70
     0
  0
ENDTAB
  0
TABLE
  2
BLOCK_RECORD
100
AcDbSymbolTable
 70
     0
  0
BLOCK_RECORD
  5
5
100
AcDbSymbolTableRecord
100
AcDbBlockTableRecord
  2
*MODEL_SPACE
 70
     0
340
0
 70
     0
280
     1
281
     1
  0
BLOCK_RECORD
  5
6
100
AcDbSymbolTableRecord
100
AcDbBlockTableRecord
  2
*PAPER_SPACE
 70
     0
340
0
 70
     0
280
     1
281
     1
  0
ENDTAB
  0
TABLE
  2
DIMSTYLE
100
AcDbSymbolTable
 70
     0
  0
DIMSTYLE
  5
A
100
AcDbSymbolTableRecord
100
AcDbDimStyleTableRecord
  2
ANNOTATIVE
 70
     0
  3

  4

 40
1.0
 41
0.18
 42
0.0625
 43
0.38
 44
0.18
 45
0.0
 46
0.0
 47
0.0
 48
0.0
 71
     0
 72
     0
 73
     1
 74
     1
 75
     0
 76
     0
 77
     0
 78
     0
 79
     0
140
0.18
141
0.09
142
0.0
143
25.4
144
1.0
145
0.0
146
1.0
147
0.09
148
0.0
170
     0
171
     2
172
     0
173
     0
174
     0
175
     0
176
     0
177
     0
178
     0
179
    12
270
     1
271
     0
272
     0
273
     1
274
     0
275
     0
276
    12
277
     1
278
    46
279
     0
280
     0
281
     0
282
     0
283
     0
284
     0
285
     0
286
     0
287
     0
288
     1
289
     0
340

341

342

343

344

371
     0
372
     0
  0
DIMSTYLE
  5
9
100
AcDbSymbolTableRecord
100
AcDbDimStyleTableRecord
  2
STANDARD
 70
     0
  3

  4

 40
1.0
 41
0.18
 42
0.0625
 43
0.38
 44
0.18
 45
0.0
 46
0.0
 47
0.0
 48
0.0
 71
     0
 72
     0
 73
     1
 74
     1
 75
     0
 76
     0
 77
     0
 78
     0
 79
     0
140
0.18
141
0.09
142
0.0
143
25.4
144
1.0
145
0.0
146
1.0
147
0.09
148
0.0
170
     0
171
     2
172
     0
173
     0
174
     0
175
     0
176
     0
177
     0
178
     0
179
    12
270
     1
271
     0
272
     0
273
     1
274
     0
275
     0
276
    12
277
     1
278
    46
279
     0
280
     0
281
     0
282
     0
283
     0
284
     0
285
     0
286
     0
287
     0
288
     1
289
     0
340

341

342

343

344

371
     0
372
     0
  0
ENDTAB
  0
TABLE
  2
LAYER
100
AcDbSymbolTable
 70
     0
  0
LAYER
  5
7
100
AcDbSymbolTableRecord
100
AcDbLayerTableRecord
  2
0
 70
     0
 62
     7
  6
CONTINUOUS
290
1
370
     0
390
0
347
0
  0
ENDTAB
  0
TABLE
  2
LTYPE
100
AcDbSymbolTable
 70
     0
  0
LTYPE
  5
C
100
AcDbSymbolTableRecord
100
AcDbLinetypeTableRecord
  2
BYBLOCK
 70
     0
  3

 72
    65
 73
     0
 40
0.0
  0
LTYPE
  5
B
100
AcDbSymbolTableRecord
100
AcDbLinetypeTableRecord
  2
BYLAYER
 70
     0
  3

 72
    65
 73
     0
 40
0.0
  0
LTYPE
  5
8
100
AcDbSymbolTableRecord
100
AcDbLinetypeTableRecord
  2
CONTINUOUS
 70
     0
  3

 72
    65
 73
     0
 40
0.0
  0
ENDTAB
  0
TABLE
  2
STYLE
100
AcDbSymbolTable
 70
     0
  0
STYLE
  5
E
100
AcDbSymbolTableRecord
100
AcDbTextStyleTableRecord
  2
ANNOTATIVE
 70
     0
 40
0.0
 41
1.0
 50
0.0
 71
     0
 42
0.2
  3
txt
  4

  0
STYLE
  5
D
100
AcDbSymbolTableRecord
100
AcDbTextStyleTableRecord
  2
STANDARD
 70
     0
 40
0.0
 41
1.0
 50
0.0
 71
     0
 42
0.2
  3
txt
  4

  0
ENDTAB
  0
TABLE
  2
VPORT
100
AcDbSymbolTable
 70
     0
  0
VPORT
  5
F
100
AcDbSymbolTableRecord
100
AcDbViewportTableRecord
  2
*ACTIVE
 70
     0
 10
0.0
 20
0.0
 11
1.0
 21
1.0
 12
0.0
 22
0.0
 13
0.0
 23
0.0
 14
1.0
 24
1.0
 15
1.0
 25
1.0
 16
0.0
 26
0.0
 36
1.0
 17
0.0
 27
0.0
 37
0.0
 42
50.0
 43
0.0
 44
0.0
 45
1.0
 50
0.0
 51
0.0
 71
     0
 72
  1000
 74
     3
  1

281
     0
170
     0
 61
     0
332
0
333
0
348
0
292
1
282
     0
141
0.0
142
0.0
  0
ENDTAB
  0
ENDSEC
  0
SECTION
  2
ENTITIES
  0
LWPOLYLINE
  5
10
100
AcDbEntity
  8
0
347
0
370
     0
430

440
        0
390
0
284
     0
100
AcDbPolyline
 90
        4
 70
     1
 10
0.0
 20
0.0
 10
50.0
 20
0.0
 10
50.0
 20
25.0
 10
0.0
 20
25.0
  0
CIRCLE
  5
11
100
AcDbEntity
  8
0
347
0
370
     0
430

440
        0
390
0
284
     0
100
AcDbCircle
 10
8.0
 20
12.5
 30
0.0
 40
2.5
  0
LWPOLYLINE
  5
12
100
AcDbEntity
  8
0
347
0
370
     0
430

440
        0
390
0
284
     0
100
AcDbPolyline
 90
        8
 70
     1
 10
21.37
 20
12.87
 10
20.1
 20
12.39
 10
20.1
 20
13.95
 10
22.04
 20
14.88
 10
23.37
 20
14.88
 10
23.37
 20
8.0
 10
21.37
 20
8.0
 10
21.37
 20
12.87
  0
LWPOLYLINE
  5
13
100
AcDbEntity
  8
0
347
0
370
     0
430

440
        0
390
0
284
     0
100
AcDbPolyline
 90
       14
 70
     1
 10
24.63
 20
14.71
 10
25.485553741455
 20
14.862221717834
 10
26.358888626099
 20
14.945555686951
 10
27.25
 20
14.960000038147
 10
27.25
 20
13.4
 10
27.129375457764
 20
13.413125038147
 10
26.957500457764
 20
13.422500610352
 10
26.734375
 20
13.42812538147
 10
26.460000991821
 20
13.430000305176
 10
26.107778549194
 20
13.421111106873
 10
25.704442977905
 20
13.394444465637
 10
25.25
 20
13.35000038147
 10
24.63
 20
13.27
 10
24.63
 20
14.71
  0
LWPOLYLINE
  5
14
100
AcDbEntity
  8
0
347
0
370
     0
430

440
        0
390
0
284
     0
100
AcDbPolyline
 90
       50
 70
     1
 10
24.49
 20
9.01
 10
24.494443893433
 20
9.415555953979
 10
24.507778167725
 20
9.765555381775
 10
24.530000686646
 20
10.059999465942
 10
24.592500686646
 20
10.432499885559
 10
24.700000762939
 20
10.75
 10
24.868751525879
 20
11.038749694824
 10
25.095001220703
 20
11.284999847412
 10
25.285556793213
 20
11.430000305176
 10
25.517221450806
 20
11.564999580383
 10
25.790000915527
 20
11.689999580383
 10
26.96
 20
12.16
 10
27.165000915527
 20
12.246250152588
 10
27.340000152588
 20
12.324999809265
 10
27.47500038147
 20
12.398749351501
 10
27.560001373291
 20
12.469999313354
 10
27.617500305176
 20
12.546249389648
 10
27.64999961853
 20
12.635000228882
 10
27.665000915527
 20
12.751249313354
 10
27.670000076294
 20
12.909999847412
 10
27.67
 20
14.95
 10
28.116250991821
 20
14.90625
 10
28.495000839233
 20
14.835000038147
 10
28.816249847412
 20
14.723750114441
 10
29.090000152588
 20
14.559999465942
 10
29.298801422119
 20
14.35359954834
 10
29.461200714111
 20
14.094399452209
 10
29.577199935913
 20
13.782399177551
 10
29.646800994873
 20
13.417600631714
 10
29.670000076294
 20
13.0
 10
29.64999961853
 20
12.550625801086
 10
29.590000152588
 20
12.16250038147
 10
29.489999771118
 20
11.835624694824
 10
29.35000038147
 20
11.569999694824
 10
29.176250457764
 20
11.35749912262
 10
28.954999923706
 20
11.170000076294
 10
28.686248779297
 20
11.007499694824
 10
28.370000839233
 20
10.869999885559
 10
26.95
 20
10.32
 10
26.786251068115
 20
10.252500534058
 10
26.655000686646
 20
10.190000534058
 10
26.556251525879
 20
10.130000114441
 10
26.489999771118
 20
10.069999694824
 10
26.450000762939
 20
10.0
 10
26.430000305176
 20
9.909999847412
 10
26.422500610352
 20
9.777500152588
 10
26.420000076294
 20
9.579999923706
 10
26.42
 20
8.0
 10
24.49
 20
8.0
 10
24.49
 20
9.01
  0
LWPOLYLINE
  5
15
100
AcDbEntity
  8
0
347
0
370
     0
430

440
        0
390
0
284
     0
100
AcDbPolyline
 90
        5
 70
     1
 10
26.84
 20
9.56
 10
29.67
 20
9.56
 10
29.67
 20
8.0
 10
26.84
 20
8.0
 10
26.84
 20
9.56
  0
LWPOLYLINE
  5
16
100
AcDbEntity
  8
0
347
0
370
     0
430

440
        0
390
0
284
     0
100
AcDbPolyline
 90
       15
 70
     1
 10
30.67
 20
14.72
 10
31.445554733276
 20
14.853333473206
 10
32.198886871338
 20
14.933333396912
 10
32.930000305176
 20
14.960000038147
 10
33.129997253418
 20
14.957500457764
 10
33.270000457764
 20
14.949999809265
 10
33.27
 20
13.4
 10
33.091110229492
 20
13.416666984558
 10
32.874443054199
 20
13.42666721344
 10
32.619998931885
 20
13.430000305176
 10
32.429996490479
 20
13.427778244019
 10
32.193332672119
 20
13.421111106873
 10
31.909999847412
 20
13.409999847412
 10
30.67
 20
13.29
 10
30.67
 20
14.72
  0
LWPOLYLINE
  5
17
100
AcDbEntity
  8
0
347
0
370
     0
430

440
        0
390
0
284
     0
100
AcDbPolyline
 90
       57
 70
     1
 10
33.75
 20
10.07
 10
33.741249084473
 20
10.266250610352
 10
33.715000152588
 20
10.414999961853
 10
33.66625213623
 20
10.526249885559
 10
33.590000152588
 20
10.609999656677
 10
33.491874694824
 20
10.653749465942
 10
33.347496032715
 20
10.684999465942
 10
33.156871795654
 20
10.703749656677
 10
32.919998168945
 20
10.710000038147
 10
31.82
 20
10.71
 10
31.82
 20
12.24
 10
32.92
 20
12.24
 10
33.152500152588
 20
12.244999885559
 10
33.329998016357
 20
12.260000228882
 10
33.462501525879
 20
12.289999961853
 10
33.560001373291
 20
12.340000152588
 10
33.626251220703
 20
12.411250114441
 10
33.665000915527
 20
12.505000114441
 10
33.683746337891
 20
12.638750076294
 10
33.689998626709
 20
12.829999923706
 10
33.69
 20
14.92
 10
34.097999572754
 20
14.862999916077
 10
34.458000183105
 20
14.779999732971
 10
34.770000457764
 20
14.670999526978
 10
35.034004211426
 20
14.53600025177
 10
35.25
 20
14.375
 10
35.459999084473
 20
14.135313034058
 10
35.610000610352
 20
13.851249694824
 10
35.700000762939
 20
13.522812843323
 10
35.729999542236
 20
13.14999961853
 10
35.712188720703
 20
12.807499885559
 10
35.658752441406
 20
12.510000228882
 10
35.569690704346
 20
12.257499694824
 10
35.444999694824
 20
12.049999237061
 10
35.281558990479
 20
11.878749847412
 10
35.076248168945
 20
11.734999656677
 10
34.829063415527
 20
11.61874961853
 10
34.540000915527
 20
11.529999732971
 10
34.54
 20
11.49
 10
34.841873168945
 20
11.404375076294
 10
35.097499847412
 20
11.297500610352
 10
35.30687713623
 20
11.169375419617
 10
35.470001220703
 20
11.020000457764
 10
35.610000610352
 20
10.803750038147
 10
35.709999084473
 20
10.534999847412
 10
35.770000457764
 20
10.213749885559
 10
35.790000915527
 20
9.840000152588
 10
35.764999389648
 20
9.445625305176
 10
35.690002441406
 20
9.102499961853
 10
35.564998626709
 20
8.810625076294
 10
35.389999389648
 20
8.569999694824
 10
35.177200317383
 20
8.388799667358
 10
34.906799316406
 20
8.237199783325
 10
34.578800201416
 20
8.11519908905
 10
34.193199157715
 20
8.022799491882
 10
33.75
 20
7.960000038147
 10
33.75
 20
10.07
  0
LWPOLYLINE
  5
18
100
AcDbEntity
  8
0
347
0
370
     0
430

440
        0
390
0
284
     0
100
AcDbPolyline
 90
       16
 70
     1
 10
31.73
 20
7.995
 10
31.292221069336
 20
8.046667098999
 10
30.925556182861
 20
8.101665496826
 10
30.629999160767
 20
8.159999847412
 10
30.63
 20
9.59
 10
31.407777786255
 20
9.512222290039
 10
32.127777099609
 20
9.46555519104
 10
32.790000915527
 20
9.449999809265
 10
33.034996032715
 20
9.454999923706
 10
33.329998016357
 20
9.470000267029
 10
33.33
 20
7.93
 10
33.194999694824
 20
7.922500133514
 10
32.98999786377
 20
7.920000076294
 10
32.605556488037
 20
7.928333282471
 10
32.185554504395
 20
7.953333377838
 10
31.729999542236
 20
7.994999885559
  0
ENDSEC
  0
SECTION
  2
OBJECTS
  0
ENDSEC
  0
EOF
